<svg xmlns="http://www.w3.org/2000/svg" width="811.84912pt" height="150pt" viewBox="0 0 811.84916 149.99999"><path d="M1404.94 183.153V157.34h46.272v-16.992h-92.028v-18.063h92.028v-17.05h-92.028v-18.38h92.028V69.922h-127.894c7.009 0 11.536 7.597 11.536 17.18l.024 55.422c0 5.539.964 9.478 2.893 11.853 1.81 1.964 4.692 2.964 8.655 2.964h33.443v25.812h-64.947v16.921h156.446v-16.921zM1739.373 183.153V157.34h46.273v-16.992h-92.028v-18.063h92.028v-17.05h-92.028v-18.38h92.028V69.922h-127.894c7.008 0 11.536 7.597 11.536 17.18l.024 55.422c0 5.539.964 9.478 2.892 11.853 1.8 1.964 4.692 2.964 8.655 2.964h33.444v25.812h-64.959v16.921h156.458v-16.921zM1639.905 107.183h-18.274V69.93h-21.72c.177.223 0 149.578 0 149.578h21.72v-95.274h18.426v-17.05zM1476.694 69.926c6.126 0 10.818 6.209 10.818 12.253v77.153c.012 5.48 1.047 9.408 2.963 11.771 1.811 1.964 4.692 2.987 8.655 2.987h83.762V69.926Zm84.29 87.242h-51.74V86.86h51.74zM1032.507 119.638V69.93h-33.55c3.963 0 9.631 4.48 9.972 12.241v43.71c.377 3.41 1.53 5.997 2.94 7.726 1.811 1.975 4.692 2.951 8.655 2.951h109.162v-16.921zM1144.707 149.369H994.741c-.283 0-.53-.047-.788-.082v17.098h37.147v53.352h22.084v-53.352h33.056v53.352h22.107v-53.352h36.666v-17.051c-.106.011-.2.035-.306.035M1145.897 183.153v16.921h156.023v-16.921c-.13.011-156.023 0-156.023 0M1236.129 69.737h-32.468c3.434 0 7.644 5.209 10.56 11.065l-55.222 85.584h18.862l45.544-71.179 42.71 71.18h29.257z" style="stroke-width:11.7593" transform="translate(-993.953 -69.737)"/></svg>